<?xml version="1.0" encoding="utf-8"?>
<!-- Generator: Adobe Illustrator 22.1.0, SVG Export Plug-In . SVG Version: 6.00 Build 0)  -->
<svg version="1.1" id="pw-logo" xmlns="http://www.w3.org/2000/svg" xmlns:xlink="http://www.w3.org/1999/xlink" x="0px" y="0px"
	 viewBox="0 0 890 1024" style="enable-background:new 0 0 890 1024;" xml:space="preserve" width="130">
<style type="text/css">
	.st0{fill:url(#logo-bg_1_);}
	.st1{fill:#FFFFFF;}
</style>
<linearGradient id="logo-bg_1_" gradientUnits="userSpaceOnUse" x1="886.749" y1="953.749" x2="-33.5" y2="33.5">
	<stop  offset="0" style="stop-color:#B11E8D"/>
	<stop  offset="0.2302" style="stop-color:#B3208A"/>
	<stop  offset="0.4175" style="stop-color:#B92680"/>
	<stop  offset="0.5897" style="stop-color:#C3316F"/>
	<stop  offset="0.7529" style="stop-color:#D14057"/>
	<stop  offset="0.9082" style="stop-color:#E35238"/>
	<stop  offset="1" style="stop-color:#F06022"/>
</linearGradient>
<path id="logo-bg" class="st0" d="M764.5,1024H0V0h890v898.5C890,967.8,833.8,1024,764.5,1024z"/>
<path id="logo-text" class="st1" d="M151.1,871.2h20.7v-39.7h8.3c8.5,0,15.2-1.9,19.9-5.8c4.7-3.9,7.1-10.8,7.1-20.9
	c0-8.8-2-15.5-6.1-20.2c-4.1-4.7-10.2-7-18.5-7h-31.4V871.2z M171.8,817v-24.8h6.8c3.8,0,6.2,1,7.4,3c1.2,2,1.7,5.1,1.7,9.2
	c0,4.5-0.6,7.8-1.8,9.7c-1.2,1.9-3.6,2.9-7.2,2.9H171.8z M207.1,871.2h19.5l3.2-19.8h13.7l3.1,19.8h19l-17.4-93.6h-23.5L207.1,871.2
	z M231.7,839.1l5-36.5l5,36.5H231.7z M278.6,871.2h20.8V793h14v-15.4h-48.8V793h14.1V871.2z M358.6,871.2h18.2l7.5-56.5l8,56.5h18
	l11.2-93.6h-17.3l-5.7,54.2l-7.4-54.1h-13.7l-7,54.4l-5.5-54.5h-17.5L358.6,871.2z M424.5,871.2H444l3.2-19.8H461l3.1,19.8h19
	l-17.4-93.6h-23.5L424.5,871.2z M449.1,839.1l5-36.5l5,36.5H449.1z M492.6,871.2h42.1v-14h-21.5v-79.6h-20.7V871.2z M567.6,872.6
	c4.8,0,9.1-1,12.8-3.1c3.7-2.1,6.6-4.9,8.6-8.5c2-3.6,3.1-7.6,3.1-12c0-6-1.3-11.2-3.8-15.6c-2.5-4.4-6.1-8.5-10.7-12.5l-7.7-6.8
	c-3.2-2.8-5.4-5.2-6.9-7.4c-1.4-2.2-2.1-4.8-2.1-8c0-1.8,0.5-3.5,1.4-5c1-1.5,2.3-2.3,4.1-2.3c2.5,0,4.1,1.1,4.8,3.2
	c0.7,2.1,1.2,5.6,1.3,10.5l17.8-2.2c-0.2-7.4-1.9-13.7-5.1-18.8c-3.2-5.2-9.2-7.7-18.1-7.7c-8.2,0-14.6,2.1-19.2,6.4
	c-4.7,4.2-7,10.3-7,18.1c0,5.2,1.1,9.8,3.3,13.6c2.2,3.8,5.3,7.4,9.3,10.8l8.1,7.1c3.5,3,6.1,5.8,7.8,8.4c1.7,2.6,2.5,5.7,2.5,9.4
	c0,4.5-1.7,6.8-5.2,6.8c-2.7,0-4.7-1.3-6.1-3.9c-1.3-2.6-2.1-6.8-2.1-12.8l-17.7,2.7c0.3,10.3,2.6,17.8,7,22.6
	C552,870.3,558.7,872.6,567.6,872.6z M602.4,871.2h20.7v-40.9h14.4v40.9h20.8v-93.6h-20.8v37.9h-14.4v-37.9h-20.7V871.2z"/>
<path id="logo-bottom" class="st1" d="M658.3,604.7l-138-42.3v174.4h138V604.7z M473.7,548.1l-138-42.3v231h138V548.1z M289.1,491.5
	l-138-42.3v287.6h138V491.5z"/>
<path id="logo-mid" class="st1" d="M738.9,283.6l-138,9.9v293.6l138,42.3V283.6z M554.3,296.9l-138,9.9v223.7l138,42.3V296.9z
	 M369.7,310.2l-138,9.9V474l138,42.3V310.2z"/>
<path id="logo-top" class="st1" d="M658.3,151.4v138.2l-138,9.9V151.4H658.3z M335.7,151.4v161.4l138-9.9V151.4H335.7z M151.1,151.4
	v174.7l138-9.9V151.4H151.1z"/>
</svg>
